<svg xmlns="http://www.w3.org/2000/svg" viewBox="0 0 135 40">
  <path fill="#A6A6A6" d="M130.2 40H4.73A4.74 4.74 0 0 1 0 35.27V4.73C0 2.12 2.12 0 4.73 0H130.2a4.8 4.8 0 0 1 4.8 4.73v30.54a4.8 4.8 0 0 1-4.8 4.73z"/>
  <path d="M134.03 35.27a3.83 3.83 0 0 1-3.83 3.83H4.73a3.83 3.83 0 0 1-3.84-3.83V4.72A3.84 3.84 0 0 1 4.73.9H130.2a3.83 3.83 0 0 1 3.83 3.84v30.54z"/>
  <g fill="#FFF">
    <path d="M30.13 19.78c-.03-3.22 2.64-4.79 2.76-4.86a5.94 5.94 0 0 0-4.68-2.53c-1.96-.2-3.87 1.18-4.87 1.18-1.03 0-2.57-1.16-4.23-1.12a6.23 6.23 0 0 0-5.24 3.2c-2.27 3.91-.58 9.68 1.6 12.85 1.08 1.55 2.35 3.29 4 3.23 1.63-.07 2.24-1.04 4.2-1.04 1.95 0 2.52 1.04 4.2 1 1.75-.03 2.85-1.56 3.9-3.13a12.83 12.83 0 0 0 1.78-3.62 5.6 5.6 0 0 1-3.42-5.16zM26.93 10.3a5.7 5.7 0 0 0 1.3-4.08 5.81 5.81 0 0 0-3.75 1.94 5.43 5.43 0 0 0-1.34 3.94 4.8 4.8 0 0 0 3.79-1.8z"/>
  </g>
  <g fill="#FFF">
    <path d="M53.65 31.5h-2.28l-1.24-3.9h-4.32l-1.19 3.9h-2.21l4.28-13.3h2.65l4.3 13.3zm-3.9-5.55l-1.12-3.47c-.12-.35-.34-1.2-.67-2.5h-.04c-.13.56-.34 1.4-.63 2.5l-1.1 3.48h3.57zM64.66 26.59c0 1.63-.44 2.92-1.32 3.87a3.87 3.87 0 0 1-2.94 1.26c-1.27 0-2.17-.45-2.73-1.36h-.04v5.05H55.5V25.07c0-1.03-.03-2.08-.08-3.16h1.88l.12 1.52h.04a3.55 3.55 0 0 1 3.23-1.72c1.14 0 2.08.45 2.84 1.34.75.9 1.13 2.08 1.13 3.54zm-2.17.08c0-.94-.21-1.7-.63-2.31A2.18 2.18 0 0 0 60 23.4c-.52 0-1 .17-1.43.52-.43.35-.7.8-.84 1.37-.06.27-.1.48-.1.65v1.6c0 .7.22 1.3.65 1.77s.98.72 1.66.72c.8 0 1.43-.3 1.88-.92.45-.62.67-1.44.67-2.45zM75.7 26.59c0 1.63-.44 2.92-1.33 3.87a3.86 3.86 0 0 1-2.94 1.26c-1.26 0-2.17-.45-2.72-1.36h-.04v5.05h-2.13V25.07c0-1.03-.03-2.08-.08-3.16h1.87l.12 1.52h.04a3.55 3.55 0 0 1 3.24-1.72c1.13 0 2.08.45 2.84 1.34a5.3 5.3 0 0 1 1.13 3.54zm-2.17.08c0-.94-.21-1.7-.64-2.31a2.18 2.18 0 0 0-1.85-.95c-.53 0-1 .17-1.43.52-.43.35-.71.8-.84 1.37-.07.27-.1.48-.1.65v1.6c0 .7.21 1.3.64 1.77.43.48.98.72 1.67.72.8 0 1.43-.3 1.88-.92.44-.62.67-1.44.67-2.45zM88.04 27.77c0 1.13-.4 2.05-1.18 2.77a5.24 5.24 0 0 1-3.63 1.16 6.35 6.35 0 0 1-3.45-.83l.5-1.78c.93.57 1.96.85 3.08.85.8 0 1.43-.18 1.88-.54.44-.36.67-.85.67-1.45 0-.54-.19-1-.56-1.37a5.14 5.14 0 0 0-1.83-1.03c-2.33-.87-3.5-2.14-3.5-3.81 0-1.1.41-2 1.23-2.7.81-.69 1.9-1.04 3.26-1.04 1.2 0 2.21.21 3.02.63l-.54 1.74c-.75-.4-1.6-.61-2.54-.61-.75 0-1.34.18-1.76.55-.36.33-.53.73-.53 1.2 0 .53.2.97.6 1.31.36.32 1 .66 1.94 1.03 1.15.46 1.99 1 2.53 1.62.54.61.8 1.38.8 2.3zM95.09 23.5h-2.35v4.67c0 1.18.41 1.77 1.24 1.77.38 0 .7-.03.95-.1l.06 1.62c-.42.16-.97.24-1.66.24-.84 0-1.5-.26-1.98-.77-.47-.51-.7-1.38-.7-2.59v-4.83h-1.4v-1.6h1.4v-1.76l2.09-.63v2.39h2.35v1.6zM105.7 26.63c0 1.47-.43 2.68-1.27 3.63a4.51 4.51 0 0 1-3.52 1.46c-1.4 0-2.53-.47-3.36-1.4s-1.26-2.11-1.26-3.53c0-1.5.43-2.7 1.3-3.66a4.47 4.47 0 0 1 3.48-1.42c1.4 0 2.54.47 3.4 1.4.81.91 1.22 2.08 1.22 3.52zm-2.22.07c0-.89-.19-1.65-.57-2.28a2.1 2.1 0 0 0-1.92-1.15c-.85 0-1.5.38-1.95 1.15a4.4 4.4 0 0 0-.57 2.32c0 .88.18 1.64.57 2.27.46.77 1.1 1.15 1.93 1.15.82 0 1.46-.39 1.92-1.17.4-.64.59-1.41.59-2.3zM112.62 23.78a3.7 3.7 0 0 0-.67-.06c-.75 0-1.33.29-1.74.85a3.2 3.2 0 0 0-.53 1.9v5.03h-2.13l.02-6.57c0-1.1-.03-2.11-.08-3.02h1.85l.08 1.83h.06c.23-.63.58-1.13 1.07-1.52.47-.34.98-.5 1.54-.5.2 0 .37 0 .53.03v2.03zM122.16 26.25a5 5 0 0 1-.08.97h-6.4c.03.95.34 1.67.93 2.17.54.45 1.24.67 2.1.67.94 0 1.8-.15 2.58-.45l.33 1.48a8 8 0 0 1-3.21.6 4.66 4.66 0 0 1-3.5-1.32 4.85 4.85 0 0 1-1.28-3.53c0-1.44.4-2.65 1.18-3.6a4.09 4.09 0 0 1 3.36-1.55c1.38 0 2.43.52 3.14 1.54.56.82.85 1.82.85 3.02zm-2.04-.55a2.9 2.9 0 0 0-.41-1.64c-.37-.6-.94-.89-1.7-.89-.7 0-1.26.29-1.7.87a3.18 3.18 0 0 0-.63 1.66h4.44z"/>
  </g>
  <g fill="#FFF">
    <path d="M92.2 9.42l.69.1c-.1.38-.2.74-.2 1.2 0 .9.62 1.46 1.54 1.46.44 0 1.1-.16 1.49-.7.11-.15.22-.39.22-.5 0-.22 0-.36-.05-.55-.2-.79-.52-1.4-.66-1.67l.88-.37c.13.23.46.98.58 1.64.16.08.38.1.62.1.32 0 .67.15.67.58 0 .25-.11.58-.67.58-.27 0-.51-.04-.62-.1-.03.3-.18.69-.33.92a2.48 2.48 0 0 1-2.25 1.17c-1.5 0-2.3-1-2.3-2.29 0-.59.18-1.16.38-1.57zm1.28-2.12c0-.36.23-.6.56-.6.34 0 .57.23.57.6s-.23.58-.57.58c-.33 0-.56-.22-.56-.58z"/>
    <path d="M96.63 10.71c0-.27.14-.58.7-.58.42 0 .58-.2.77-.7.45-1.1.83-1.56 1.57-1.56 1 0 1.55 1.17 1.55 2.1 0 .73-.44 1.32-1.16 1.32a2.8 2.8 0 0 1-1.63-.61c-.25.37-.48.61-1.1.61h-.02c-.32 0-.68-.15-.68-.58zm3.44-.53c.23 0 .4-.07.4-.3 0-.47-.4-1.06-.85-1.06-.32 0-.56.17-.78.85.31.27.85.5 1.23.5zM109.22 9.31c.11.75.58.82.94.82.32 0 .67.15.67.58 0 .25-.11.58-.67.58-.28 0-.66-.07-.9-.39 0 .67-.14 1.08-.34 1.35a2.8 2.8 0 0 1-2.33 1.1c-1.29 0-2.25-.8-2.25-2.19 0-.43.1-.93.32-1.45l.7.11c-.11.38-.17.7-.17.99 0 1 .7 1.5 1.57 1.5.65 0 1.28-.25 1.54-.64.08-.14.1-.28.08-.5l-.26-6.41.92-.07.17 4.62z"/>
    <path d="M109.55 10.7c0-.22.14-.57.62-.57h.22c.6 0 .99-.05 1.18-.17v-.13a4.56 4.56 0 0 0-.7-2l.88-.33c.34.65.66 1.67.66 2.47 0 .28-.04.61-.14.85-.24.22-.65.47-2 .47h-.1c-.5 0-.62-.34-.62-.6zm1.64 2.41c0 .35-.23.56-.54.56s-.56-.2-.56-.56c0-.35.24-.56.56-.56s.54.21.54.56zm1.37 0c0 .35-.23.56-.55.56-.32 0-.54-.2-.54-.56 0-.35.22-.56.54-.56.32 0 .55.21.55.56zM114.6 6.75c0-.36.24-.6.57-.6.34 0 .57.24.57.6s-.23.6-.58.6c-.32 0-.56-.23-.56-.6zM117.56 6.36c0-.37.23-.6.56-.6.35 0 .57.23.57.6s-.22.58-.57.58c-.33 0-.56-.22-.56-.58zM114.48 12.3c.7 0 1.45-.58 1.45-1.28 0-.4-.29-1.17-.85-2.06l.86-.32c.3.54.61.69 1.04.69.57 0 .99-.29 1.06-.82l.76-.08c-.05.29-.08.54-.08.72 0 .75.42.97 1 .98.3 0 .66.15.66.58 0 .25-.1.58-.67.58-.9 0-1.57-.45-1.66-1.38-.23.3-.71.45-1.12.45-.1 0-.24-.03-.3-.04a3 3 0 0 1 .08.74c0 1.14-.85 2.33-2.16 2.33-.5 0-1.05-.15-1.36-.53l.15-.85c.31.2.7.28 1.14.28z"/>
    <path d="M119.1 10.7c0-.22.14-.57.62-.57h.22c.6 0 .99-.05 1.19-.17v-.13a4.56 4.56 0 0 0-.72-2l.89-.33c.34.65.67 1.67.67 2.47 0 .28-.05.61-.15.85-.24.22-.65.47-2 .47h-.1c-.5 0-.62-.34-.62-.6zm.12-4.7c0-.36.23-.57.55-.57.33 0 .55.21.55.57s-.22.56-.55.56c-.32 0-.55-.2-.55-.56zm1.39 0c0-.36.22-.57.53-.57.33 0 .54.21.54.57s-.21.56-.54.56c-.31 0-.53-.2-.53-.56z"/>
  </g>
</svg>
