<?xml version="1.0" encoding="utf-8"?>
<svg fill="none" viewBox="0 0 390 264" xmlns="http://www.w3.org/2000/svg">
<g clip-path="url(#clip0_4712_255314)">
<path d="M0 0h390v264H0z" fill="#f7bdea"/>
<g clip-path="url(#clip1_4712_255314)">
<path d="M456.86 0H25.59v265h431.26V0z" fill="#f6b8e8"/>
<path d="M34.44 0H448a8.85 8.85 0 0 1 8.85 8.83v247.34A8.83 8.83 0 0 1 448 265H34.44a8.86 8.86 0 0 1-8.85-8.83V8.83A8.83 8.83 0 0 1 34.44 0z" fill="#f6b8e8"/>
<path d="M-136.09.05L394.64 0h3.96c0 123.75-61.43 251.1-534.68 251.1-.14.28 0-9.94 0-9.94V.06z" fill="#fdeef9"/>
<path d="M414.31 55.4a18.85 18.85 0 0 0-13.97-16.9 18.92 18.92 0 0 0-20.55 7.7 19.84 19.84 0 0 0-23.57 7.59 12.23 12.23 0 0 0-17.7 8.03c-.55 2.46-.34 5.02.62 7.35a2.29 2.29 0 0 0 2.13 1.42h81.95a2.33 2.33 0 0 0 2.3-2.26v-.32a12.7 12.7 0 0 0-11.2-12.62z" fill="#fff"/>
<path d="M-56.14 205.05h513v19.11h-513v-19.11z" fill="#fce6f7"/>
<path d="M-195.33 224h652v41h-652v-41z" fill="#f7c3eb"/>
<path d="M298.32 99.04c-20.7 0-29.75 13.5-29.75 30.16v75.78h32V100.85a2.06 2.06 0 0 0-2.25-1.8z" fill="#f6b8e8"/>
<path d="M277 99.04c-1 0-1.99.03-3.22.11-19.06 1.2-32 14.2-32 30.05v75.78h37.46V100.85a2.06 2.06 0 0 0-2.25-1.8zM286.14 112.59h30.6a3.37 3.37 0 0 1 3.26 3.48v88.91h-37.1v-88.91a3.36 3.36 0 0 1 3.24-3.48z" fill="#fff"/>
<path d="M254 168.43h3.49a1.74 1.74 0 0 1 1.75 1.74v5.22a1.75 1.75 0 0 1-1.08 1.6c-.22.08-.44.13-.67.13H254a1.74 1.74 0 0 1-1.74-1.74v-5.21a1.74 1.74 0 0 1 1.74-1.74z" fill="#fad5f1"/>
<path d="M339.7 84.5h32.78a3.48 3.48 0 0 1 3.48 3.47v117.01h-39.74v-117a3.47 3.47 0 0 1 3.48-3.48z" fill="#fff"/>
<path d="M367.7 95.8h-18.72v4.34h18.71a2.18 2.18 0 0 0 1.54-3.71c-.4-.4-.96-.64-1.54-.64zM367.7 109.7h-18.72v4.34h18.71a2.18 2.18 0 0 0 2.18-2.17 2.17 2.17 0 0 0-2.18-2.18zM367.7 151.4h-18.72v4.34h18.71a2.18 2.18 0 0 0 2.18-2.17 2.17 2.17 0 0 0-2.18-2.17z" fill="#fbe2f5"/>
<path d="M254 182.95h3.49a1.76 1.76 0 0 1 1.61 1.07c.09.21.13.44.13.67v5.22a1.74 1.74 0 0 1-1.74 1.73H254a1.74 1.74 0 0 1-1.74-1.73v-5.22a1.74 1.74 0 0 1 1.74-1.74z" fill="#fad5f1"/>
<path d="M367.7 165.3h-18.72v4.35h18.71a2.18 2.18 0 1 0 0-4.35zM367.7 123.6h-18.72v4.34h18.71a2.18 2.18 0 1 0 0-4.34zM367.7 179.2h-18.72v4.35h18.71a2.18 2.18 0 0 0 1.54-3.71c-.4-.4-.96-.64-1.54-.64zM367.7 137.5h-18.72v4.34h18.71a2.18 2.18 0 0 0 1.54-3.7c-.4-.41-.96-.64-1.54-.64z" fill="#fbe2f5"/>
<path d="M363.75 130.26h28.13a3.48 3.48 0 0 1 3.48 3.47v71.25h-35.1v-71.25a3.48 3.48 0 0 1 3.49-3.47z" fill="#fce6f7"/>
<path d="M265.32 168.43h3.48a1.74 1.74 0 0 1 1.74 1.74v5.22a1.73 1.73 0 0 1-1.74 1.73h-3.48a1.74 1.74 0 0 1-1.74-1.74v-5.21a1.74 1.74 0 0 1 1.74-1.74zM265.32 184.05h3.48a1.74 1.74 0 0 1 1.74 1.74v5.2a1.73 1.73 0 0 1-1.74 1.74h-3.48a1.74 1.74 0 0 1-1.74-1.73v-5.22a1.74 1.74 0 0 1 1.74-1.74z" fill="#fad5f1"/>
<path d="M311 96.95h35.1a4.65 4.65 0 0 1 4.64 4.64v103.39h-44.39v-103.4a4.63 4.63 0 0 1 4.65-4.63z" fill="#f4a9e3"/>
<path d="M315.93 108.82a3.49 3.49 0 0 1 2.46 5.94 3.48 3.48 0 1 1-2.46-5.94zM315.93 125.33a3.49 3.49 0 0 1 2.46 5.94 3.48 3.48 0 1 1-2.46-5.94zM315.93 140.97a3.49 3.49 0 0 1 2.46 5.94 3.48 3.48 0 1 1-2.46-5.94zM315.93 155.74a3.49 3.49 0 0 1 2.46 5.94 3.48 3.48 0 1 1-2.46-5.94zM315.93 168.78a3.49 3.49 0 0 1 2.46 5.93 3.48 3.48 0 1 1-2.46-5.93zM328.11 125.42a3.48 3.48 0 0 1 .68 6.88 3.49 3.49 0 0 1-3.14-5.87 3.48 3.48 0 0 1 2.46-1.01zM328.11 140.97a3.48 3.48 0 1 1 0 6.97 3.48 3.48 0 0 1 0-6.97zM328.11 155.74a3.48 3.48 0 0 1 .68 6.89 3.49 3.49 0 0 1-3.14-5.87 3.48 3.48 0 0 1 2.46-1.02zM328.11 168.78a3.48 3.48 0 1 1 0 6.97 3.48 3.48 0 0 1 0-6.97zM340.29 108.76a3.48 3.48 0 1 1 0 6.97 3.48 3.48 0 0 1 0-6.97zM340.29 125.42a3.48 3.48 0 1 1 0 6.96 3.48 3.48 0 0 1 0-6.96zM340.29 140.97a3.48 3.48 0 1 1 0 6.97 3.48 3.48 0 0 1 0-6.97zM340.29 155.74a3.48 3.48 0 1 1 0 6.97 3.48 3.48 0 0 1 0-6.97zM340.29 168.78a3.48 3.48 0 1 1 0 6.96 3.48 3.48 0 0 1 0-6.96z" fill="#fbe2f5"/>
<path d="M254 134.94h3.49a1.76 1.76 0 0 1 1.61 1.08c.09.2.13.44.13.66v5.22a1.74 1.74 0 0 1-1.74 1.73H254a1.74 1.74 0 0 1-1.74-1.73v-5.22a1.74 1.74 0 0 1 1.74-1.74zM254 118.2h3.49a1.74 1.74 0 0 1 1.75 1.74v5.22a1.74 1.74 0 0 1-1.75 1.73H254a1.75 1.75 0 0 1-1.74-1.73v-5.22a1.74 1.74 0 0 1 1.74-1.74zM254 150.57h3.49a1.76 1.76 0 0 1 1.61 1.07c.09.21.13.44.13.67v5.23a1.74 1.74 0 0 1-1.74 1.73H254a1.74 1.74 0 0 1-1.74-1.73v-5.22a1.74 1.74 0 0 1 1.74-1.74zM265.32 134.94h3.48a1.76 1.76 0 0 1 1.61 1.08c.09.2.13.44.13.66v5.22a1.72 1.72 0 0 1-1.08 1.6c-.2.1-.43.13-.66.13h-3.48a1.74 1.74 0 0 1-1.74-1.73v-5.22a1.74 1.74 0 0 1 1.74-1.74zM265.32 118.2h3.48a1.74 1.74 0 0 1 1.74 1.74v5.22a1.72 1.72 0 0 1-1.08 1.6c-.2.09-.43.13-.66.13h-3.48a1.75 1.75 0 0 1-1.74-1.73v-5.22a1.74 1.74 0 0 1 1.74-1.74z" fill="#fad5f1"/>
<path d="M352.85 200a6.6 6.6 0 0 0 6.58-6.57c0-2.92-2.62-15.08-6.58-15.08s-6.59 12.16-6.59 15.08a6.57 6.57 0 0 0 6.59 6.57z" fill="#e948c4"/>
<path d="M353.28 187.01h-.87v18.18h.88v-18.18z" fill="#eb5aca"/>
<path d="M352.54 191.65l.61-.62-2.6-2.6-.61.62 2.6 2.6zM352.54 196.84l.61-.61-2.6-2.6-.61.61 2.6 2.6zM353.15 193.81l3.04-3.03-.62-.61-3.03 3.03.61.61z" fill="#eb5aca"/>
<path d="M339.4 200a5.19 5.19 0 0 0 5.18-5.17c0-2.35-2-11.72-5.17-11.72-3.16 0-5.17 9.37-5.17 11.72a5.18 5.18 0 0 0 5.18 5.17z" fill="#5d0b4a"/>
<path d="M339.84 190.9h-.87v14.3h.87v-14.3z" fill="#eb5aca"/>
<path d="M339.1 195.1l.61-.6-2.17-2.17-.61.61 2.17 2.17zM339.71 197.27l2.6-2.6-.6-.61-2.6 2.6.61.6z" fill="#eb5aca"/>
<path d="M265.32 150.57h3.48a1.76 1.76 0 0 1 1.61 1.07c.09.21.13.44.13.67v5.23a1.72 1.72 0 0 1-1.08 1.6c-.2.09-.43.13-.66.13h-3.48a1.74 1.74 0 0 1-1.74-1.73v-5.22a1.74 1.74 0 0 1 1.74-1.74zM287.96 125.33h15.8v4.35h-15.8a2.03 2.03 0 0 1-1.84-2.17 2.02 2.02 0 0 1 1.84-2.18zM287.96 134.9h15.8v4.34h-15.8a2.03 2.03 0 0 1-1.84-2.18 2.02 2.02 0 0 1 1.84-2.17zM287.96 144.45h15.8v4.34h-15.8a2.03 2.03 0 0 1-1.84-2.17 2.02 2.02 0 0 1 1.84-2.17zM287.96 154h15.8v4.35h-15.8a2.03 2.03 0 0 1-1.84-2.17 2.02 2.02 0 0 1 1.84-2.17zM287.96 163.56h15.8v4.35h-15.8a2.03 2.03 0 0 1-1.84-2.17 2.02 2.02 0 0 1 1.84-2.18zM287.96 173.12h15.8v4.35h-15.8a2.03 2.03 0 0 1-1.84-2.18 2.02 2.02 0 0 1 1.84-2.17zM287.96 182.68h15.8v4.34h-15.8a2.03 2.03 0 0 1-1.84-2.17 2.02 2.02 0 0 1 1.84-2.17z" fill="#fad5f1"/>
<path d="M367.52 138.37h4.9a.7.7 0 0 1 .7.7v4.9a.7.7 0 0 1-.7.7h-4.9a.7.7 0 0 1-.7-.7v-4.9a.7.7 0 0 1 .7-.7zM381.44 138.37h4.9a.7.7 0 0 1 .7.7v4.9a.7.7 0 0 1-.7.7h-4.9a.7.7 0 0 1-.7-.7v-4.9a.7.7 0 0 1 .7-.7zM367.52 148.8h4.9a.7.7 0 0 1 .7.7v4.89a.7.7 0 0 1-.7.7h-4.9a.7.7 0 0 1-.7-.7v-4.9a.7.7 0 0 1 .7-.7zM381.44 148.8h4.9a.7.7 0 0 1 .7.7v4.89a.7.7 0 0 1-.7.7h-4.9a.7.7 0 0 1-.7-.7v-4.9a.7.7 0 0 1 .7-.7zM367.52 159.22h4.9a.7.7 0 0 1 .7.7v4.9a.7.7 0 0 1-.7.7h-4.9a.7.7 0 0 1-.7-.7v-4.9a.7.7 0 0 1 .7-.7zM381.44 159.22h4.9a.7.7 0 0 1 .7.7v4.9a.7.7 0 0 1-.7.7h-4.9a.7.7 0 0 1-.7-.7v-4.9a.7.7 0 0 1 .7-.7zM367.52 169.65h4.9a.7.7 0 0 1 .7.7v4.9a.7.7 0 0 1-.7.7h-4.9a.7.7 0 0 1-.7-.7v-4.9a.7.7 0 0 1 .7-.7zM381.44 169.65h4.9a.7.7 0 0 1 .7.7v4.9a.7.7 0 0 1-.7.7h-4.9a.7.7 0 0 1-.7-.7v-4.9a.7.7 0 0 1 .7-.7zM367.52 180.07h4.9a.7.7 0 0 1 .7.7v4.9a.7.7 0 0 1-.7.7h-4.9a.7.7 0 0 1-.7-.7v-4.9a.7.7 0 0 1 .7-.7zM381.44 180.07h4.9a.7.7 0 0 1 .7.7v4.9a.7.7 0 0 1-.7.7h-4.9a.7.7 0 0 1-.7-.7v-4.9a.7.7 0 0 1 .7-.7zM367.52 190.5h4.9a.7.7 0 0 1 .7.7v4.9a.7.7 0 0 1-.7.7h-4.9a.7.7 0 0 1-.7-.7v-4.9a.7.7 0 0 1 .7-.7zM381.44 190.5h4.9a.7.7 0 0 1 .7.7v4.9a.7.7 0 0 1-.7.7h-4.9a.7.7 0 0 1-.7-.7v-4.9a.7.7 0 0 1 .7-.7z" fill="#f6b8e8"/>
<path d="M328.11 108.76a3.48 3.48 0 0 1 .68 6.89 3.49 3.49 0 0 1-3.14-5.87 3.48 3.48 0 0 1 2.46-1.02z" fill="#fbe2f5"/>
<path d="M58.76 252.85H25.6v3.32h33.17v-3.32zM126.84 252.85H93.67v3.32h33.17v-3.32zM194.92 252.85h-33.17v3.32h33.17v-3.32zM263 252.85h-33.18v3.32H263v-3.32zM331.07 252.85H297.9v3.32h33.18v-3.32zM399.15 252.85h-33.17v3.32h33.17v-3.32z" fill="#fff"/>
<path d="M444.4 223.78v-5.66h-9.69v5.66h-1.05v-5.66h-9.68v5.66h-1.06v-5.66h-9.68v5.66h-1.06v-5.66h-9.68v5.66h-1.06v-5.66h-9.68v5.66h-1.06v-5.66h-9.68v5.66h-1.05v-5.66h-9.48v5.66h-1.05v-5.66h-9.69v5.66h-1.05v-5.66h-9.69v5.66h-1.05v-5.66h-9.68v5.66h-1.06v-5.66h-9.68v5.66h-1.06v-5.66h-9.69v5.66h-1.05v-5.66h-9.68v5.66H305v-5.66h-9.68v5.66h-1.06v-5.66h-9.68v5.66h-1.05v-5.66h-9.69v5.66h-1.05v-5.66h-9.68v5.66h-1.06v-5.66h-9.68v5.66h-1.06v-5.66h-9.47v5.66h-1.06v-5.66h-9.69v5.66h-1.05v-5.66h-9.68v5.66h-1.06v-5.66h-9.68v5.66h-1.06v-5.66h-9.68v5.66h-1.05v-5.66h-9.69v5.66h-1.05v-5.66h-9.68v5.66h-1.06v-5.66h-9.68v5.66h-1.05v-5.66h-9.7v5.66h-1.04v-5.66h-9.69v5.66h-1.06v-5.66h-9.68v5.66h-1.05v-5.66h-9.69v5.66h-1.05v-5.66h-9.69v5.66h-1.05v-5.66h-9.48v5.66h-1.05v-5.66h-9.68v5.66h-1.06v-5.66h-9.68v5.66H79.9v-5.66h-9.68v5.66h-1.05v-5.66h-9.7v5.66h-1.05v-5.66h-9.68v5.66H47.7v-5.66H38v5.66h-1.05v-5.66H25.59v-2.52H456.8v2.52h-11.37v5.66h-1.05z" fill="#f189d9"/>
<path d="M37.48 218.12h-9.69v5.66h-1.05v-5.66h-9.69v5.66H16v-5.66H6.32v5.66H5.26v-5.66h-9.69v5.66h-1.05v-5.66h-9.68v5.66h-1.06v-5.66h-9.68v5.66h-1.06v-5.66h-9.47v5.66h-1.05v-5.66h-9.69v5.66h-1.05v-5.66h-9.69v5.66h-1.05v-5.66h-9.69v5.66h-1.05v-5.66h-9.68v5.66h-1.06v-5.66h-9.69v5.66h-1.05v-5.66h-9.69v5.66h-1.05v-5.66h-9.68v5.66h-1.06v-5.66h-9.68v5.66h-1.05v-5.66h-9.69v5.66h-1.05v-5.66h-9.69v5.66h-1.05v-5.66h-9.69v5.66h-1.05v-5.66h-9.47v5.66h-1.06v-5.66h-9.69v5.66h-1.05v-5.66h-9.69v5.66h-1.05v-5.66h-9.69v5.66h-1.05v-5.66h-9.68v5.66h-1.06v-5.66h-9.68v5.66h-1.05v-5.66h-9.69v5.66h-1.05v-5.66h-9.69v5.66h-1.05v-5.66h-9.68v5.66h-1.06v-5.66h-9.68v5.66h-1.06v-5.66h-9.68v5.66h-1.05v-5.66h-9.69v5.66h-1.05v-5.66h-9.69v5.66H-295v-5.66h-9.48v5.66h-1.05v-5.66h-9.69v5.66h-1.05v-5.66h-9.69v5.66H-327v-5.66h-9.68v5.66h-1.06v-5.66h-9.68v5.66h-1.06v-5.66h-9.68v5.66h-1.05v-5.66h-9.69v5.66h-1.05v-5.66h-11.37v-2.52H49.9v2.52H37.48z" fill="#f189d9"/>
<path d="M202.32 207.67c1.12-1.79 11.45-9.1 11.45-9.1s-3.63-2.42-1.26-3.83c2.38-1.4 11.6-1.43 11.6-1.43.02 0 41.35-.5 45.24 0 3.9.5 10.06 2.93 15.95 5.68a83.3 83.3 0 0 1 13.4 8.04c6.45.24 12.88.94 19.24 2.1 8.88 1.8 11.7 4.06 12.08 5.07.38 1.01 0 5.69 0 5.69.77.93 1.36 2 1.74 3.15.27 1.37-.73 9.72-1.74 10.34a12.3 12.3 0 0 1-4.42 1.7c-2.36.2-4.73.26-7.1.16 0 0 1.33-14.19-11.3-14.15-12.64.03-7.08 14.16-7.08 14.16l-63.26-.4s.22-13.9-11.9-13.76c-12.14.15-11 12.7-11 12.7a35 35 0 0 0-5.83-1.13c-1.18.1-2.66.41-3.56 0-.9-.42-4.1-5.84-4.1-5.84-.14-1.91-.14-3.83 0-5.74a1.49 1.49 0 0 1 1.08-.7l1.18-5.03s-1.53-5.88-.4-7.68z" fill="#6e0d58"/>
<path d="M225.98 200.83l14.45 7.6 52.23 2.39a61.36 61.36 0 0 0-10.81-8.77 37.84 37.84 0 0 0-12.56-4.83c-1.54-.22-34.2-1.01-37.81 0a10.9 10.9 0 0 0-5.5 3.61z" fill="#fdeef9" opacity=".75"/>
<path d="M225.45 202.25l14.28 7.9 17.75.83.54 18.83 3.04.04-.6-18.87 32.96 1.66c.55.64.9 1.42 1 2.26.12 1.27-1.16 13.6-1.68 14.62-.52 1.03-4.48.64-4.48.64l-49.62-.53a11.48 11.48 0 0 0-3.67-7.6 13.08 13.08 0 0 0-8.16-3.43s-1.13-7.76-1.36-10.13a52.33 52.33 0 0 1 0-6.22z" fill="#fff" opacity=".05"/>
<path d="M203.1 208.61c.1-1.18 5.12-4.65 5.12-4.65l6.87-4.69h.6s-7.05 6.37-7.47 7.29c-.43.92 1.21 1.74 1.21 1.74s6.83-.33 7.05 0c.2.33.1.8-.89 1.9a7.29 7.29 0 0 1-3.06 2.53c-1.16.3-7.1.47-8.47 0-1.37-.48-1.05-2.94-.95-4.12z" fill="#e83fc1"/>
<path d="M307.38 243.96a12.1 12.1 0 1 0 .02-24.2 12.1 12.1 0 0 0-.02 24.2z" fill="#420734"/>
<path d="M307.57 240.7a8.84 8.84 0 1 0 .02-17.68 8.84 8.84 0 0 0-.02 17.68z" fill="#fce6f7"/>
<path d="M308.42 223.04h-1.69v8.83h1.69v-8.83z" fill="#420734"/>
<path d="M316.5 230.1l-.51-1.6-8.42 2.73.52 1.6 8.42-2.73z" fill="#420734"/>
<path d="M312.27 239.68l1.36-.99-5.2-7.14-1.36.99 5.2 7.14z" fill="#420734"/>
<path d="M301.14 239.02l1.36.98 5.2-7.14-1.36-1-5.2 7.16z" fill="#420734"/>
<path d="M299.29 228.27l-.52 1.6 8.41 2.73.52-1.6-8.41-2.73z" fill="#420734"/>
<path d="M307.57 239.44a7.58 7.58 0 1 0 .01-15.15 7.58 7.58 0 0 0 0 15.15z" fill="#fce6f7" opacity=".25"/>
<path d="M307.57 234.81a2.95 2.95 0 1 0 0-5.89 2.95 2.95 0 0 0 0 5.9z" fill="#420734"/>
<path d="M307.57 235.24a3.37 3.37 0 1 0 0-6.74 3.37 3.37 0 0 0 0 6.74zM225.53 243.96a12.1 12.1 0 1 0 .02-24.2 12.1 12.1 0 0 0-.02 24.2z" fill="#420734"/>
<path d="M225.72 240.7a8.84 8.84 0 1 0 .02-17.68 8.84 8.84 0 0 0-.02 17.68z" fill="#fce6f7"/>
<path d="M226.57 223.04h-1.69v8.83h1.69v-8.83z" fill="#420734"/>
<path d="M234.66 230.1l-.52-1.6-8.42 2.73.52 1.6 8.42-2.73z" fill="#420734"/>
<path d="M230.42 239.68l1.36-.99-5.2-7.14-1.36.99 5.2 7.14z" fill="#420734"/>
<path d="M219.29 239.02l1.36.98 5.2-7.14-1.36-1-5.2 7.16z" fill="#420734"/>
<path d="M217.44 228.27l-.52 1.6 8.41 2.73.52-1.6-8.4-2.73z" fill="#420734"/>
<path d="M225.72 239.44a7.58 7.58 0 1 0 .02-15.15 7.58 7.58 0 0 0-.02 15.15z" fill="#fce6f7" opacity=".25"/>
<path d="M225.72 234.81a2.95 2.95 0 1 0 0-5.89 2.95 2.95 0 0 0 0 5.9z" fill="#420734"/>
<path d="M318.02 213.2c1 1.47 2.3 2.69 3.83 3.57 1.68.73 3.5 1.08 5.33 1.02 0-.01 1.63-2.83 1.03-3.28-.59-.44-10.19-1.31-10.19-1.31z" fill="#f7c4ec"/>
<path d="M239.33 196.7h1.05l.12 11.76-1.17-.53V196.7zM257.02 196.71h1.05v12.86l-1.57-.26.52-12.6zM259.19 196.71h-1.05l.15 12.6 2.08.1-1.18-12.7z" fill="#6e0d58"/>
<path d="M287.14 210.48s-.77-.32-.77-.59c-.1-.9.02-1.82.33-2.67a1.5 1.5 0 0 1 1.52-1.06 5.86 5.86 0 0 1 3.56 1.06 3.05 3.05 0 0 1 1.29 2.4.97.97 0 0 1-.72 1.18c-.63.12-5.21-.32-5.21-.32z" fill="#fce7f7"/>
<path d="M233.01 214v.47c.65.36 1.37.56 2.11.6a5.51 5.51 0 0 0 2.22-.6v-.44c-.74.1-1.48.17-2.22.2a8.22 8.22 0 0 1-2.11-.23zM262.7 214v.47c.66.36 1.38.56 2.12.6a5.51 5.51 0 0 0 2.21-.6v-.44c-.73.1-1.47.17-2.2.2a8.22 8.22 0 0 1-2.12-.23z" fill="#420734"/>
<path d="M262.08 214.74s-.33-.54 0-.87a4.62 4.62 0 0 1 2.7-.5c.97-.12 1.96.05 2.83.5a.63.63 0 0 1 0 .83c-.92-.2-1.87-.33-2.82-.38a8.3 8.3 0 0 0-2.7.42zM232.38 214.74s-.33-.55 0-.87c.83-.44 1.77-.61 2.7-.5.97-.09 1.95.09 2.83.5.42.3 0 .83 0 .83-.93-.2-1.88-.33-2.83-.38-.92-.01-1.83.13-2.7.42z" fill="#fce7f7"/>
<path d="M355.65 42a12.7 12.7 0 0 0-12.7 12.69c0 9.47 12.7 23.45 12.7 23.45s12.7-13.98 12.7-23.45A12.68 12.68 0 0 0 355.64 42z" fill="#ad148a"/>
<path d="M290.12 70a8.28 8.28 0 0 0-8.26 8.23c0 6.15 8.26 15.23 8.26 15.23s8.26-9.08 8.26-15.23a8.22 8.22 0 0 0-8.26-8.23z" fill="#e946c3"/>
<path d="M349.74 55.95a6.08 6.08 0 1 1 12.15 0 6.08 6.08 0 0 1-12.15 0z" fill="#780e60"/>
<path d="M286.2 78.25a3.91 3.91 0 1 1 7.83 0 3.91 3.91 0 0 1-7.83 0z" fill="#fbe4f6"/>
</g>
</g>
<defs>
<clipPath id="clip0_4712_255314">
<path d="M0 0h390v264H0z" fill="#fff"/>
</clipPath>
<clipPath id="clip1_4712_255314">
<path d="M0 0h513v265H0z" fill="#fff" transform="translate(-122.33)"/>
</clipPath>
</defs>
</svg>