<?xml version="1.0" encoding="utf-8"?>
<svg viewBox="0 0 390 264" xmlns="http://www.w3.org/2000/svg">
<g clip-path="url(#clip0_4712_255313)">
<path d="M0 0h390v264H0z" fill="#f7bdea"/>
<g clip-path="url(#clip1_4712_255313)">
<path d="M-122.67 0h513v264h-513z" fill="#fbe4f6"/>
<path d="M303.52 137.03h45.9a2 2 0 0 1 2 1.73v61.93a2 2 0 0 1-2 1.8h-45.9a2 2 0 0 1-2-1.8v-61.86a2 2 0 0 1 2-1.8z" fill="#f191db"/>
<path d="M311.77 146.14a.86.86 0 0 1 .86-.86h36.8a.86.86 0 0 1 .86.86.87.87 0 0 1-.87.87h-36.79a.86.86 0 0 1-.86-.87zm0 13.9a.86.86 0 0 1 .86-.86h36.8a.86.86 0 0 1 0 1.73h-36.8a.87.87 0 0 1-.86-.86zm0 14.31a.86.86 0 0 1 .86-.86h36.8a.86.86 0 0 1 0 1.72h-36.8a.86.86 0 0 1-.86-.86zm0-21.22a.86.86 0 0 1 .86-.87h36.8a.9.9 0 0 1 .63 1.54.9.9 0 0 1-.64.26h-36.79a.87.87 0 0 1-.86-.87v-.06zm0 14.17a.93.93 0 0 1 .93-1h36.59a.97.97 0 0 1 0 1.93h-36.6a.93.93 0 0 1-.92-.93zm0 14.1a.85.85 0 0 1 .23-.65.88.88 0 0 1 .63-.28h36.8a.9.9 0 1 1 0 1.8h-36.8a.86.86 0 0 1-.86-.87z" fill="#e948c4"/>
<path d="M325.6 88h43.44a1.93 1.93 0 0 1 2 1.86v110.77a1.92 1.92 0 0 1-2 1.86H325.6a1.93 1.93 0 0 1-2-1.86V89.86a1.94 1.94 0 0 1 2-1.86z" fill="#f5afe5"/>
<path d="M354.88 99.18a.53.53 0 0 1 .53-.54h6.26a.53.53 0 0 1 .53.54v6.45a.53.53 0 0 1-.53.53h-6.25a.53.53 0 0 1-.53-.53v-6.45zm0 30.73a.53.53 0 0 1 .53-.53h6.26a.53.53 0 0 1 .53.53v6.32a.53.53 0 0 1-.53.53h-6.25a.53.53 0 0 1-.53-.53v-6.32zm0 30.8a.53.53 0 0 1 .53-.53h6.26a.53.53 0 0 1 .53.53v6.25a.54.54 0 0 1-.53.54h-6.25a.53.53 0 0 1-.53-.53v-6.26zm0-46.23a.53.53 0 0 1 .53-.54h6.26a.54.54 0 0 1 .53.53v6.4a.53.53 0 0 1-.53.6h-6.25a.54.54 0 0 1-.52-.38.53.53 0 0 1-.02-.23v-6.38zm0 30.93a.53.53 0 0 1 .13-.42c.05-.06.1-.1.18-.13a.52.52 0 0 1 .22-.05h6.25c.08 0 .15.02.22.05a.52.52 0 0 1 .3.33c.02.06.02.14.01.21v6.25a.53.53 0 0 1-.53.54h-6.25a.53.53 0 0 1-.53-.53v-6.26zm0 30.6a.53.53 0 0 1 .53-.53h6.26a.53.53 0 0 1 .53.53v6.26a.53.53 0 0 1-.53.6h-6.25a.54.54 0 0 1-.52-.38.53.53 0 0 1-.02-.22V176zm-20.96-76.83c0-.08.02-.15.05-.22a.53.53 0 0 1 .55-.32h6.39a.53.53 0 0 1 .54.54v6.45a.53.53 0 0 1-.53.53h-6.46a.52.52 0 0 1-.55-.31.52.52 0 0 1-.05-.22l.07-6.45zm0 30.8a.52.52 0 0 1 .15-.45.53.53 0 0 1 .45-.15h6.39a.53.53 0 0 1 .4.18.53.53 0 0 1 .13.42v6.25a.53.53 0 0 1-.52.53h-6.46a.53.53 0 0 1-.6-.53l.07-6.25zm0 30.73c0-.06.02-.14.05-.2a.54.54 0 0 1 .32-.3.51.51 0 0 1 .23-.02h6.39a.53.53 0 0 1 .54.53v6.25a.53.53 0 0 1-.53.54h-6.46a.55.55 0 0 1-.42-.13.53.53 0 0 1-.18-.4l.07-6.26zm0-46.22c0-.08.02-.15.05-.22a.53.53 0 0 1 .32-.3.55.55 0 0 1 .23-.02h6.39a.54.54 0 0 1 .54.54v6.45a.53.53 0 0 1-.53.53h-6.46a.55.55 0 0 1-.42-.13.53.53 0 0 1-.18-.4l.07-6.45zm0 30.93a.53.53 0 0 1 .36-.58.53.53 0 0 1 .24-.02h6.39a.53.53 0 0 1 .4.2.52.52 0 0 1 .14.41v6.25a.53.53 0 0 1-.53.54h-6.46c-.07 0-.15 0-.22-.02a.52.52 0 0 1-.33-.3.52.52 0 0 1-.05-.22l.07-6.25zm0 30.6c0-.07.02-.15.05-.22a.52.52 0 0 1 .32-.29.53.53 0 0 1 .23-.02h6.39a.53.53 0 0 1 .54.53v6.26a.53.53 0 0 1-.53.6h-6.46a.54.54 0 0 1-.57-.36.54.54 0 0 1-.03-.24l.07-6.26z" fill="#fbe4f6"/>
<path d="M354.74 142.22h33.53a1.87 1.87 0 0 1 1.93 1.73v77.97a1.88 1.88 0 0 1-1.27 1.64c-.24.07-.48.1-.73.09h-33.46a1.85 1.85 0 0 1-1.8-1.03c-.11-.22-.18-.46-.2-.7v-78.04a1.87 1.87 0 0 1 2-1.73v.07z" fill="#f4a9e3"/>
<path d="M364.92 150.34a.8.8 0 0 1 .87-.87h16.56a.83.83 0 1 1 0 1.66h-16.63a.8.8 0 0 1-.8-.8zm0 7.11a.8.8 0 0 1 .87-.8h16.56a.83.83 0 0 1 0 1.67h-16.63a.8.8 0 0 1-.76-.54.8.8 0 0 1-.04-.33zm0 7.32a.93.93 0 0 1 .93-.93h16.43a.9.9 0 0 1 .64 1.53.9.9 0 0 1-.64.26h-16.43a.93.93 0 0 1-.93-.93v.07zm0 14.37a.8.8 0 0 1 .87-.8h16.56a.83.83 0 0 1 0 1.66h-16.63a.8.8 0 0 1-.76-.53.8.8 0 0 1-.04-.33zm0-7.18a.8.8 0 0 1 .87-.8h16.56a.83.83 0 1 1 0 1.66h-16.63a.79.79 0 0 1-.6-.26.8.8 0 0 1-.2-.6zm0 14.23a.79.79 0 0 1 .54-.76.8.8 0 0 1 .33-.04h16.56a.8.8 0 1 1 0 1.6h-16.63a.8.8 0 0 1-.8-.8zm0 7.25a.93.93 0 0 1 .93-.93h16.43a.9.9 0 0 1 .64 1.53.9.9 0 0 1-.64.27h-16.43a.93.93 0 0 1-.93-.87z" fill="#ee70d1"/>
<path d="M78.33 266.22h305.35V203.9c0-.01-44.17-10.33-100.45-5.34-56.28 5-95.13 24.15-125.93 36.46-30.8 12.3-78.97 31.27-78.97 31.27v-.07z" fill="#f5afe5"/>
<path d="M145.59 271.48h244.74v-63.34s-7.45-9.84-63.6-8.78c-56.14 1.07-71.38 25.95-108.16 39.25-36.8 13.3-72.91 32.93-72.91 32.93l-.07-.06z" fill="#ef7bd4"/>
<path d="M279.77 186.06a9.71 9.71 0 0 0-9.71 9.71c0 7.25 9.7 17.96 9.7 17.96s9.72-10.7 9.72-17.96a9.71 9.71 0 0 0-9.71-9.71z" fill="#ad148a"/>
<path d="M275.25 195.64a4.65 4.65 0 1 1 9.3 0 4.65 4.65 0 0 1-9.3 0z" fill="#780e60"/>
<path d="M273.05 218.12c0-1 3-1.8 6.79-1.8s6.72.8 6.72 1.8c0 .94-3 1.73-6.72 1.73-3.73 0-6.79-.8-6.79-1.73z" fill="#222" opacity=".1"/>
<path d="M238.13 163.17a17.95 17.95 0 0 0-18.03 18.03c0 13.5 17.96 33.46 17.96 33.46s18.03-19.95 18.03-33.46a17.96 17.96 0 0 0-17.98-17.96v-.07z" fill="#eb5aca"/>
<path d="M230.2 180.8a8.11 8.11 0 1 1 16.24 0 8.11 8.11 0 0 1-16.23 0z" fill="#cb18a2"/>
<path d="M228.94 219.79c0-1.27 4-2.27 9.05-2.27 5.06 0 9.05 1 9.05 2.27 0 1.25-4 2.25-9.05 2.25-5.05 0-9.05-1-9.05-2.26z" fill="#222" opacity=".1"/>
<path d="M372.64 247.66a7.45 7.45 0 0 1-7.45-7.45c0-3.33 2.92-16.97 7.45-16.97 4.52 0 7.51 13.58 7.51 16.97a7.44 7.44 0 0 1-7.51 7.52v-.07z" fill="#5d0b4a"/>
<path d="M372.04 255.24V243.6l-3.6-3.6.94-.92 2.66 2.73v-7.25h1.33v4.12l2-2.06.86.86-2.93 2.93v14.83h-1.26z" fill="#cb18a2"/>
<path d="M174.8 244.33a10.44 10.44 0 0 1-10.38-10.37c0-4.8 3.99-23.69 10.44-23.69 6.45 0 10.44 18.9 10.44 23.69a10.45 10.45 0 0 1-10.5 10.37z" fill="#c1179a"/>
<path d="M174 254.91v-16.3l-5-4.98 1.2-1.26 3.8 3.8v-10.12h1.72v5.72l2.87-2.86 1.2 1.2-4.06 4.12v20.62l-1.73.07z" fill="#e73ec1"/>
<path d="M349.55 242.54a15.63 15.63 0 0 1-15.63-15.64c0-6.91 6.25-35.79 15.63-35.79s15.64 28.88 15.64 35.8a15.63 15.63 0 0 1-15.64 15.63z" fill="#c917a0"/>
<path d="M348.56 254.91v-27.34l-6.92-6.92 1.46-1.46 5.39 5.45v-12.97h2.06v7.78l4.46-4.39 1.46 1.47-5.92 5.85v9.45l4.46-4.4 1.46 1.47-5.92 5.85v20.16h-2z" fill="#e73ec1"/>
</g>
</g>
<defs>
<clipPath id="clip0_4712_255313">
<path d="M0 0h390v264H0z" fill="#fff"/>
</clipPath>
<clipPath id="clip1_4712_255313">
<path d="M0 0h513v264H0z" fill="#fff" transform="translate(-122.67)"/>
</clipPath>
</defs>
</svg>