<?xml version="1.0" encoding="utf-8"?>
<svg fill="none" height="247" viewBox="0 0 365 247" width="365" xmlns="http://www.w3.org/2000/svg">
<g clip-path="url(#clip0_9890_5737)">
<path d="M0 8a8 8 0 0 1 8-8h349a8 8 0 0 1 8 8v231a8 8 0 0 1-8 8H8a8 8 0 0 1-8-8V8z" fill="#fbe2f5"/>
<path d="M345.8 130.6l-45.3 14a5.1 5.1 0 0 0-5.2 5.2v101h50.5V130.6z" fill="#f4a9e3"/>
<path d="M337.3 49.4L363 65.2c1.4 0 2.6 2.4 2.6 5.3V250h-28.2V49.4zm-62-15.7c-7.2 0-14.4 1.6-21.1 4.7a55.4 55.4 0 0 0-18 13.4 63 63 0 0 0-12 20.1 68.5 68.5 0 0 0-4.2 23.7v155.7h58.7v-214a4 4 0 0 0-1-2.6 3 3 0 0 0-2.3-1z" fill="#f4a9e3"/>
<path d="M312.6 19c-1.4 0-2.9 0-4.7.2-27.8 2.7-56.3 31.2-56.3 66v166H316V23c0-1-.4-2-1-2.8a3 3 0 0 0-2.3-1.2z" fill="#fff"/>
<path d="M305.2 192.2H300a2.6 2.6 0 0 0-2.5 2.5v7.7a2.6 2.6 0 0 0 2.5 2.6h5.2a2.6 2.6 0 0 0 2.5-2.6v-7.7a2.6 2.6 0 0 0-2.5-2.5z" fill="#fad5f1"/>
<path d="M240.5 115.3h-42a4 4 0 0 0-3.2 1.5c-.8 1-1.3 2.2-1.3 3.6v131h51v-131c0-1.4-.5-2.7-1.3-3.6a4 4 0 0 0-3.2-1.5z" fill="#fff"/>
<path d="M288.5 192.2h-5.2a2.6 2.6 0 0 0-2.5 2.5v7.7a2.6 2.6 0 0 0 2.5 2.6h5.2a2.6 2.6 0 0 0 2.5-2.6v-7.7a2.6 2.6 0 0 0-2.5-2.5zm16.7 23H300a2.6 2.6 0 0 0-2.5 2.5v7.7a2.6 2.6 0 0 0 2.5 2.6h5.2a2.6 2.6 0 0 0 2.5-2.6v-7.7a2.6 2.6 0 0 0-2.5-2.5zm-16.7 0h-5.2a2.6 2.6 0 0 0-2.5 2.5v7.7a2.6 2.6 0 0 0 2.5 2.6h5.2a2.6 2.6 0 0 0 2.5-2.6v-7.7a2.6 2.6 0 0 0-2.5-2.5zm-16.7-23h-5a2.6 2.6 0 0 0-2.7 2.5v7.7a2.6 2.6 0 0 0 2.6 2.6h5a2.6 2.6 0 0 0 2.7-2.6v-7.7a2.6 2.6 0 0 0-2.6-2.5z" fill="#fad5f1"/>
<path d="M365.5 85.5h-27.6c-1.4 0-2.7.6-3.6 1.7-1 1-1.5 2.4-1.5 3.9v160.2h32.7V85.5z" fill="#fff"/>
<path d="M271.8 215.2h-5a2.6 2.6 0 0 0-2.7 2.5v7.7a2.6 2.6 0 0 0 2.6 2.6h5a2.6 2.6 0 0 0 2.7-2.6v-7.7a2.5 2.5 0 0 0-2.6-2.5zm33.4-119.9H300a2.6 2.6 0 0 0-2.5 2.5v7.7a2.5 2.5 0 0 0 2.5 2.6h5.2a2.6 2.6 0 0 0 2.5-2.6v-7.7a2.6 2.6 0 0 0-2.5-2.5zm0 47.7H300a2.6 2.6 0 0 0-2.5 2.5v7.6a2.5 2.5 0 0 0 2.5 2.6h5.2a2.6 2.6 0 0 0 2.5-2.6v-7.6a2.6 2.6 0 0 0-2.5-2.6zm0-24.7H300a2.6 2.6 0 0 0-2.5 2.5v7.7a2.5 2.5 0 0 0 2.5 2.6h5.2a2.6 2.6 0 0 0 2.5-2.6v-7.7a2.6 2.6 0 0 0-2.5-2.5zm0 47.6H300a2.6 2.6 0 0 0-2.5 2.6v7.6a2.5 2.5 0 0 0 2.5 2.6h5.2a2.6 2.6 0 0 0 2.5-2.6v-7.6a2.6 2.6 0 0 0-2.5-2.6zm-16.7-70.6h-5.2a2.6 2.6 0 0 0-2.5 2.5v7.7a2.5 2.5 0 0 0 2.5 2.6h5.2a2.6 2.6 0 0 0 2.5-2.6v-7.7a2.6 2.6 0 0 0-2.5-2.5zm0 47.7h-5.2a2.6 2.6 0 0 0-2.5 2.5v7.6a2.5 2.5 0 0 0 2.5 2.6h5.2a2.6 2.6 0 0 0 2.5-2.6v-7.6a2.6 2.6 0 0 0-2.5-2.6zm0-24.7h-5.2a2.6 2.6 0 0 0-2.5 2.5v7.7a2.5 2.5 0 0 0 2.5 2.6h5.2a2.6 2.6 0 0 0 2.5-2.6v-7.7a2.6 2.6 0 0 0-2.5-2.5zm0 47.6h-5.2a2.6 2.6 0 0 0-2.5 2.6v7.6a2.5 2.5 0 0 0 2.5 2.6h5.2a2.6 2.6 0 0 0 2.5-2.6v-7.6a2.6 2.6 0 0 0-2.5-2.6zm-16.7-70.6h-5a2.6 2.6 0 0 0-2.7 2.5v7.7a2.6 2.6 0 0 0 2.6 2.6h5a2.6 2.6 0 0 0 2.7-2.6v-7.7a2.5 2.5 0 0 0-2.6-2.5zm0 47.7h-5a2.6 2.6 0 0 0-2.7 2.5v7.6a2.6 2.6 0 0 0 2.6 2.6h5a2.6 2.6 0 0 0 2.7-2.6v-7.6a2.6 2.6 0 0 0-2.6-2.6zm0-24.7h-5a2.6 2.6 0 0 0-2.7 2.5v7.7a2.6 2.6 0 0 0 2.6 2.6h5a2.6 2.6 0 0 0 2.7-2.6v-7.7a2.6 2.6 0 0 0-2.6-2.5z" fill="#fad5f1"/>
<path d="M303.1 197.1h2.6v54.2H303V197z" fill="#f4a6e2"/>
<path d="M295.7 203.2l2-1.8 7.6 7.7-1.8 1.8-7.8-7.7zm0 15.5l2-1.8 7.6 7.7-1.8 1.8-7.8-7.7zm7.8-3l9-9 1.9 1.7-9 9-2-1.8z" fill="#f4a6e2"/>
<path d="M271.8 165.9h-5a2.6 2.6 0 0 0-2.7 2.6v7.6a2.6 2.6 0 0 0 2.6 2.6h5a2.6 2.6 0 0 0 2.7-2.6v-7.6a2.6 2.6 0 0 0-2.6-2.6zm-34-32.3h-27.6v6.4h27.6a3.2 3.2 0 0 0 3-3.2 3.2 3.2 0 0 0-3-3.2zm0 14h-27.6v6.5h27.6a3.2 3.2 0 0 0 3-3.2 3.2 3.2 0 0 0-3-3.2zm0 14.2h-27.6v6.4h27.6a3.2 3.2 0 0 0 3-3.2 3.2 3.2 0 0 0-3-3.2zm0 14h-27.6v6.4h27.6a3.2 3.2 0 0 0 3-3.2 3.2 3.2 0 0 0-3-3.2zm0 14h-27.6v6.5h27.6a3.2 3.2 0 0 0 3-3.2 3.2 3.2 0 0 0-3-3.2zm0 14.2h-27.6v6.4h27.6a3.2 3.2 0 0 0 3-3.2 3.2 3.2 0 0 0-3-3.2zm0 14h-27.6v6.4h27.6a3.2 3.2 0 0 0 3-3.2 3.2 3.2 0 0 0-3-3.2z" fill="#fad5f1"/>
<path d="M350.7 113.2a4.5 4.5 0 0 0-4.5 4.4V128a4.5 4.5 0 0 0 4.5 4.5 4.5 4.5 0 0 0 4.5-4.5v-10.3a4.5 4.5 0 0 0-4.5-4.4zm0 32a4.5 4.5 0 0 0-4.5 4.4v10.2a4.5 4.5 0 0 0 4.5 4.5 4.5 4.5 0 0 0 3.2-1.3c.8-.8 1.3-2 1.3-3.2v-10.2a4.5 4.5 0 0 0-4.5-4.5zm0 33.2a4.5 4.5 0 0 0-4.5 4.5V193a4.5 4.5 0 0 0 4.5 4.5 4.5 4.5 0 0 0 4.5-4.5v-10.2a4.5 4.5 0 0 0-4.5-4.5zm0 32a4.5 4.5 0 0 0-4.5 4.4v10.3a4.5 4.5 0 0 0 4.5 4.4 4.5 4.5 0 0 0 3.2-1.3c.8-.8 1.3-2 1.3-3v-10.4a4.5 4.5 0 0 0-4.5-4.4z" fill="#f4a9e3"/>
<path d="M115.4 234.8c71.7-7.2 191.1-5.6 240 0C404.2 240.3 454 247 454 247H3s40.6-5.1 112.4-12.2z" fill="#ee70d1"/>
<path d="M265.6 160.4h-39.1l-23 123.9a1 1 0 0 0 1 1.2l13.2 1.1c.5 0 1-.2 1-.7l15-48.7 11.6-37-3.4 20.4-1.4 63.7c0 .6.5 1 1 1h14.2c.6 0 1-.4 1-1l9-124z" fill="#9c127c"/>
<path d="M216.5 190v6h2.3v-2.5a4 4 0 0 1 3.7-4l9-.7a2 2 0 0 1 1.6 2v5.2h2.7v-5.7a4 4 0 0 0-1.7-3.2l-1.4-1-13.6 1a3 3 0 0 0-2.6 3z" fill="#530a43"/>
<path d="M217.5 181.3l-1.4-4v-1.6l10-.5v3a2 2 0 0 0 1.2 2l2.4 1 .7.4 4 4.9c.4.3.5.7.5 1.2l-1.9-1a2 2 0 0 0-1-.3 1 1 0 0 0-.8 1.4l.8 2a2 2 0 0 1-.8 2.4c-.4.3-.8.3-1.3.1l-.7-.3a1 1 0 0 0-.8 0l-.9.4a1 1 0 0 1-.7 0l-1.5-.5a1 1 0 0 0-.5 0l-1 .2a1 1 0 0 1-.7 0l-1.2-.7a1 1 0 0 0-.4 0 2 2 0 0 1-1.7-1l-2.1-4.4a4 4 0 0 1-.4-2.5l.3-1.2-.1-1z" fill="#f8c9ed"/>
<path d="M202.4 230.7l5.5-35.4 35.6-2.4-4.4 37.1-36.7.7z" fill="#5d0b4a"/>
<path d="M247.1 192.9h-3.6l-4.4 37.1h6.7l1.2-37zm-14.7-130l.6 7.2 2-1.8 1.2.7 1.6 1.8v-5.3l1-4.2 1.5-1.3 1.4.4 5 .9h5.7l1.3 3.2 1.4-2.4c.3-.5.3-1.2 0-1.7l-.5-.6a.8.8 0 0 1 .2-1.2c.4-.2.6-.8.3-1.2l-.8-1.1a2 2 0 0 1-.4-.8l-.4-1.7a4.1 4.1 0 0 0-6.1-2.7l-4 2.4a7 7 0 0 1-3.7 1 7 7 0 0 0-5.5 3l-.3.2a7.8 7.8 0 0 0-1.5 5.2z" fill="#410734"/>
<path d="M236.9 69l.5 1 11.4 7.4V88l-3.5 4-11.4-9.3v-8.3s0-.3-.2-.4c-.7-.5-1-1.4-1-2.3V71l.3-1.3c.5-1.9 3-2.2 3.9-.6z" fill="#f8c9ed"/>
<path d="M248.8 86.7v-2.9l-1.4-2.2-10-3c1.2 7.2 6.2 9.2 11.4 8z" fill="#f4a6e2"/>
<path d="M237.2 76.5l.4-11 .3-2.4V63l.6-1.6a2.8 2.8 0 0 1 3.6-1.7l1.9.7c1.6.6 3.3.8 5 .4l2.7-.6c.7-.1 1.3.2 1.6.8.3.5.5 1 .5 1.7v17a3.9 3.9 0 0 1-3.3 3.9h-.5a5 5 0 0 1-.8 0h-5a6.9 6.9 0 0 1-7-7z" fill="#f8c9ed"/>
<path d="M242.2 67l.1-.5a.9.9 0 0 1 1.7.2v.3c0 .4-.1 1-.5 1a1 1 0 0 1-1.3-1zm6.3-.4a1 1 0 0 1 1.7.3v.3c0 .3 0 .5-.2.7a1 1 0 0 1-1.6-.2v-.1a1 1 0 0 1 0-1z" fill="#860f6a"/>
<path clip-rule="evenodd" d="M237.4 70l-.2 6.5a6.9 6.9 0 0 0 7 7h6.3a3.9 3.9 0 0 0 3.3-3.8v-5.3a2 2 0 0 1-2.8.4l-1.5-1c-1-.9-2.5-1-3.7-.5l-.8.4c-2.4 1-5.2.2-6.6-2.1l-1-1.7z" fill="#410734" fill-rule="evenodd"/>
<path clip-rule="evenodd" d="M245 77.5c.2-.2.4-.2.5 0l1 .3h1a.3.3 0 1 1 0 .6 3 3 0 0 1-1.1 0 3 3 0 0 1-1.3-.5.3.3 0 0 1 0-.4z" fill="#f8c9ed" fill-rule="evenodd"/>
<path d="M232.8 86l1.2-3.3 11.4 9.2 3.5-4 1.4 3.1 3 4.8 4.6 5.1 1.5 21.4v38.3h-20l-9-54 2.4-20.6z" fill="#fff"/>
<path d="M243 96l1.4-2.4a1 1 0 0 1 1.7 0l1 2c0 .2.2.4 0 .7l-.3 1.6v1l.2.7a100 100 0 0 1 3.8 20l.3 4v20l-1.2 21.6c0 .2 0 .5-.3.6l-1.5 1.5a1 1 0 0 1-1.4-.1l-1.2-1.3a1 1 0 0 1-.2-.7l1-28.5v-21.4l-1.5-16c0-.6-.3-1-.7-1.4l-.8-.7a1 1 0 0 1-.2-1.2z" fill="#5d0b4a"/>
<path d="M219.1 88l7-.6a31 31 0 0 0 5.3-1l1.3-.6.5 2.5c.5 2.5 1.4 4.8 3 6.9.5.9 1.1 1.9 1.5 2.9l1.8 3.9c4 9 5.7 18.6 5.2 28.4l-1 21.3-2.2 22.5a4 4 0 0 1-4.6 3.5l-9.4-1.6-10.8 1a4 4 0 0 1-4.2-2.7l-7.3-23.6a50 50 0 0 1-2-19.7L206 102a14 14 0 0 1 13.1-14zm50.3 67l-1.2-35.4a34.1 34.1 0 0 0-18-29v12.6l2.6 21v49.2a4 4 0 0 0 6 3.6l5.4-3a7.4 7.4 0 0 0 3.6-8l-1-5.2a3 3 0 0 1 1.3-3.1 3 3 0 0 0 1.3-2.6z" fill="#5d0b4a"/>
<path d="M222 106l-2 31a20 20 0 0 0 .4 5.5l7 33.5m35.5-69.6l3.4 52m-36.7-71.6l.5 10v.2l3.5.2v.2l-2.3 1.4c-.1 0-.1 0 0 .1 5 5 14.6 18 13.2 33m8.7-39.4l3.3 7s0 0 0 0l-2.5 1.2v.2l3 2.2h0a190 190 0 0 0-4.1 21" stroke="#410734" stroke-linecap="round" stroke-width=".5"/>
<path d="M304.3 252l-.8-6.4h-14l2.5 17 1.2 11 .8 8v8.4c0 .3-.1.6-.4.8l-6.3 4.7v2h4.7l5.8-2 4-3.1v-12l1-12v-.6c1-5.2 1.5-10.5 1.5-15.7zM281 172.1v-1.6h2l.1 2 .6 3.6-.8 4.6.4 3.2-1.2 1-.7-.4h-.3a1 1 0 0 0-.7.3l-.2.2a1 1 0 0 1-.7.3h-.3a.7.7 0 0 1-.6-.3.4.4 0 0 0-.5 0h-.1a1 1 0 0 1-.5.1h-.2a.9.9 0 0 1-.8-.4v-.2l-.3-.2a.3.3 0 0 1-.2-.4l.7-2 1.7-6.3a3 3 0 0 1 1.6-2c.6-.3 1-1 1-1.5zm29.4-83.5V77.3l-12.4 4v9.5l1.3 5-.4 2.7h3.5l.5-2.7 7.5-7.2z" fill="#f8c9ed"/>
<path d="M298 89.6v-5.2l4.5-1.6 7-4c0 9.9-7.4 11.2-11.5 10.8z" fill="#f4a6e2"/>
<path d="M308.6 56l-5.6-1.4a9 9 0 0 0-10.4 6.2l-.2.5a66.1 66.1 0 0 1-5.1 10.5c-2.6 5-3 10.7-1.2 16v.2c.8 2.2 1.2 4.5 1.2 6.8v7.1l4-4 4.2-2.7 2.5-3.9v-8.2l-3-5.6V69l11-1.4 4.3 9v13.2l11.8 5 .7-5a12 12 0 0 1 1-3.7c1.7-3.2 1.6-7 0-10.3l-2-3.5a19 19 0 0 1-1.7-4.6l-.7-3a11.4 11.4 0 0 0-8.8-8.4l-2-.4z" fill="#2e0525"/>
<path d="M294.1 67.6c4.2.2 9.3-1 11.7-2 0-.2.3 0 .4 0A9.8 9.8 0 0 0 310 71c.2.2.4.2.6.2l.4-.2a2.2 2.2 0 0 1 3 1.7v.3c.3 1.5-.7 3-2.1 3.3-1 .3-1.8 1-2 2l-.6 2c-.2.8-.6 1.6-1.2 2.2-1.4 1.4-4.2 4-6.8 3.6-.6 0-1.3-.3-2-.6a8 8 0 0 1-3.2-2.7A12 12 0 0 1 294 76v-8l.2-.2z" fill="#f8c9ed"/>
<path d="M298.3 98h5.7l-4.5 11-1.2-11z" fill="#eb5aca"/>
<path d="M283 165.5l46.6-1.3-.5 7v5.4c.3 6 .1 12-.5 18.2l-1.5 13.4c-1.5 13.5-1.4 27.2.3 40.7h-39.8a186 186 0 0 1-5.5-37.5l-1-22.4 1.8-23.5z" fill="#410734"/>
<path d="M302.9 95l7.4-6.3 2.3 1.1-2 13.2-3-3c-3.6 2.2-5.7 10-6.2 13.6v15.7l1.4 37H295v-41l2.3-24.9-3.7 4.8 4.4-14.4 1.7 4.3-.2 13 3.3-13z" fill="#fff"/>
<path d="M322.8 93.3L313 90l-.6-.2-1.8 12.7-3.2-3.8-.7.8c-2 2.5-3.5 5.3-4.5 8.3a74 74 0 0 0-1.5 16.4l.2 8 1.3 37.2.3 6.7a4.9 4.9 0 0 0 6.6 4.4l3.7-1 5.4-1.3 2.2-1.1c.6-.3 1-1 1-1.6 0-.5.4-1 1-1h6.7a1 1 0 0 0 1-.7l7-23.3c1-4 1.4-8.2 1-12.3l-3.8-30.7a17.2 17.2 0 0 0-11.5-14zm-36 77.7H281a1 1 0 0 1-1-1.2l3.4-19.5.7-4a100 100 0 0 0 1.6-17.5v-3l5 8.9-4 36.3z" fill="#ad148a"/>
<path d="M295.4 95l2.7-3.8-4.2 13 3.8-5-1 6.6-1.3 12.3v57.6c0 2-2 3.5-3.9 2.8l-3.3-1.2a7 7 0 0 1-1.7-1l-.8-.4a6 6 0 0 1-2.6-5l3.6-20.5.5-7.8c0-1.7 0-3.4-.5-5l-.7-3a7.7 7.7 0 0 0-1.2-3.1 12 12 0 0 1-1-9.2l2-6.5.4-2.6.5-5.3v-4.7c-.4-2.6 1-5 3.6-6l1-.3 4-1.8z" fill="#ad148a"/>
<path clip-rule="evenodd" d="M315.4 90.4h-.4v8.8h-3l1.7 1.8a49 49 0 0 0-7 8.5 21.4 21.4 0 0 0-4 11.4 2968.2 2968.2 0 0 1 .7 22.5s.2 0 .2-.2L303 121a21 21 0 0 1 4-11.2c2.4-3.6 5.2-6.8 7.1-8.5l.1-.2-1.4-1.4h2.6v-9.2z" fill="#550a44" fill-rule="evenodd"/>
<path d="M323.8 144.3l-5-36.5 2.7 37.3-1.6 26.3v.3l1 1.4c.2.3.7 0 .7-.2L324 146a8 8 0 0 0 0-1.7z" fill="#550a44"/>
<path clip-rule="evenodd" d="M294.6 95.4h-.3l-3.5 6 3 .6-3 2.4v.2a32.8 32.8 0 0 1 3.4 16.2.2.2 0 1 0 .5 0c.2-2.9-.3-6.2-1-9.2-.8-3-1.7-5.5-2.3-7l3-3-3-.5 3.3-5.5v-.2z" fill="#550a44" fill-rule="evenodd"/>
<path d="M329.8 182.5l-1-.7-9.2-.5h-4.9a4 4 0 0 0-1.8 1.6l-.1.2a4 4 0 0 0-.6 2v4h3v-5.4h12.4l.5.6a4 4 0 0 1 .9 2.7l-.1 3.2h2.5v-4.4a4 4 0 0 0-1.6-3.3z" fill="#5d0b4a"/>
<path d="M300 188.3h4l.6.7 1.9 3 2.7 34.7h-8l-1.3-38.4z" fill="#330629"/>
<path d="M303.4 188.3l37.2 2.2 5.4 37-37.8-.8-4.8-38.4z" fill="#5d0b4a"/>
<path d="M304.9 73l-.2-.3a.8.8 0 0 0-1.5.2v.3c0 .4 0 .7.5.9a.8.8 0 0 0 1.2-1zm-5.7-.2a.8.8 0 0 0-1.6.3v.2c0 .3 0 .5.2.7a.8.8 0 0 0 1.4-.2v-.1c.2-.3 0-.6 0-.9z" fill="#860f6a"/>
<path d="M328.7 175.3l.3-1.6h-7.4v2.8l-1.8 1a4 4 0 0 0-.7.6l-1.2 1.2a4 4 0 0 0-.4.4l-1.2 1.6h.5c.6 0 1 .6 1 1.2 0 .5-.5.9-1 1h-1.3c-.3.1-.5.3-.5.6v.4c0 .2.1.5.3.5a2 2 0 0 1 1.5 2.2l-.2 1c0 .3 0 .6.3.8l.2.2c.1.2.4.4.7.4h.3c.2 0 .4 0 .6-.2.7-.5 1.5-.5 2-.2.4.2 1 .2 1 0l.5-.3c.5-.4 1-.6 1.6-.4.3.1.6 0 .8-.1l.9-.6 1.4-1c.1-.1.3-.3.3-.5l1.2-3 .6-1.8v-3.7c-.4-.8-.5-1.6-.3-2.5z" fill="#f8c9ed"/>
<path d="M300 80.8c.4.2 2.1.6 3.1-.8" stroke="#f083d7" stroke-linecap="round" stroke-width=".8"/>
</g>
<defs>
<clipPath id="clip0_9890_5737">
<path d="M0 8a8 8 0 0 1 8-8h349a8 8 0 0 1 8 8v231a8 8 0 0 1-8 8H8a8 8 0 0 1-8-8V8z" fill="#fff"/>
</clipPath>
</defs>
</svg>